# xmcd
#
# Track frame offsets:
#	150
#	14665
#	30281
#	44908
#
# Disc length: 828 seconds
#
# Revision: 0
# Processed by: cddbd v1.5.2PL0 Copyright (c) Steve Scherf et al.
# Submitted via: audiograbber 1.83.01
#
DISCID=2e033a04
DTITLE=Faux Americana (EP) - Mary Spender
DYEAR=2014
DGENRE=Blues
TTITLE0=Blues Duet
TTITLE1=Fugitive
TTITLE2=Paperback
TTITLE3=Melancholy Parade
EXTD=
EXTT0=
EXTT1=
EXTT2=
EXTT3=
PLAYORDER=
